<?xml version="1.0" standalone="no"?>
<!DOCTYPE svg PUBLIC "-//W3C//DTD SVG 20010904//EN"
 "http://www.w3.org/TR/2001/REC-SVG-20010904/DTD/svg10.dtd">
<svg version="1.0" xmlns="http://www.w3.org/2000/svg"
 width="592.000000pt" height="592.000000pt" viewBox="0 0 592.000000 592.000000"
 preserveAspectRatio="xMidYMid meet">
<metadata>
Created by potrace 1.11, written by Peter Selinger 2001-2013
</metadata>
<g transform="translate(0.000000,592.000000) scale(0.100000,-0.100000)"
fill="#000000" stroke="none">
<path d="M2678 5835 c-1 -2 -30 -6 -63 -9 -33 -3 -74 -8 -90 -10 -17 -3 -50
-7 -75 -10 -93 -12 -308 -60 -382 -85 -29 -10 -57 -19 -63 -21 -24 -6 -34 -10
-110 -36 -44 -16 -91 -34 -105 -41 -14 -7 -31 -13 -37 -13 -24 0 -13 -18 25
-41 20 -13 41 -25 45 -27 5 -3 63 -38 129 -78 66 -41 124 -74 129 -74 5 0 9
-3 9 -8 0 -4 21 -19 48 -32 26 -14 49 -28 50 -32 2 -5 10 -8 18 -8 8 0 14 -4
14 -9 0 -5 8 -12 18 -15 9 -3 26 -12 37 -19 34 -20 177 -109 220 -136 22 -14
42 -26 45 -26 3 0 23 -12 45 -26 69 -45 179 -111 218 -132 20 -11 37 -24 37
-29 0 -4 4 -8 9 -8 9 0 69 -34 167 -95 38 -23 233 -143 272 -166 15 -9 110
-67 212 -129 102 -62 244 -149 315 -192 156 -95 137 -84 257 -158 54 -33 102
-60 108 -60 5 0 10 -4 10 -10 0 -5 4 -10 9 -10 5 0 45 -22 88 -49 191 -120
575 -351 583 -351 4 0 10 -3 12 -7 2 -5 17 -16 33 -26 17 -9 83 -50 148 -90
65 -39 125 -77 135 -82 9 -6 71 -43 137 -83 66 -40 129 -79 140 -85 11 -7 35
-22 53 -35 17 -13 32 -20 32 -17 0 4 18 -8 40 -25 22 -17 40 -28 40 -24 0 4 8
0 18 -8 9 -9 40 -30 69 -46 l51 -31 -4 52 c-6 81 -14 150 -18 177 -15 90 -28
170 -26 172 1 2 -4 16 -10 32 -6 16 -13 45 -16 65 -9 68 -95 334 -134 418 -11
24 -20 45 -20 48 0 3 -28 60 -61 128 -56 112 -81 158 -112 212 -19 33 -150
230 -157 235 -3 3 -30 37 -60 75 -126 163 -321 355 -491 486 -46 35 -85 67
-87 72 -2 4 -10 7 -17 7 -7 0 -15 3 -17 8 -12 27 -335 211 -488 277 -156 68
-402 150 -513 170 -12 3 -33 7 -47 10 -96 20 -135 27 -232 40 -21 3 -55 8 -75
11 -42 6 -509 15 -515 9z"/>
<path d="M1225 5313 c-65 -45 -159 -115 -165 -123 -3 -4 -36 -33 -75 -65 -72
-61 -240 -229 -278 -278 -12 -15 -33 -40 -46 -55 -25 -28 -176 -232 -198 -267
-161 -264 -231 -409 -310 -640 -52 -153 -102 -357 -119 -480 -3 -27 -8 -59
-10 -70 -26 -135 -26 -605 0 -755 3 -14 7 -41 10 -60 8 -49 15 -87 27 -150 7
-30 13 -62 14 -70 2 -8 4 -15 5 -15 1 0 3 -9 5 -20 16 -80 100 -333 143 -425
14 -30 26 -60 27 -67 3 -11 93 -185 133 -254 11 -20 26 -47 34 -60 7 -13 15
-26 18 -29 3 -3 18 -25 34 -50 39 -61 187 -256 231 -305 57 -63 177 -185 231
-235 114 -106 343 -281 345 -263 3 29 -1 125 -6 133 -4 6 -2 10 4 10 6 0 8 9
3 23 -4 12 -6 37 -5 55 2 17 3 43 3 57 0 31 0 51 1 68 0 15 0 75 -1 102 -1 11
-1 26 -1 33 1 6 1 18 2 25 0 15 0 75 -1 102 -1 11 -1 26 -1 33 1 6 1 18 2 25
0 15 0 75 -1 102 -1 11 -1 26 -1 33 1 6 1 18 2 25 0 15 0 75 -1 102 -1 11 -1
26 -1 33 1 6 1 18 2 25 0 15 0 75 -1 102 -1 11 -1 26 -1 33 1 6 1 18 2 25 0
15 0 75 -1 102 -1 11 -1 26 -1 33 1 6 1 18 2 25 0 15 0 75 -1 102 -1 11 -1 27
-1 35 3 69 2 121 -4 130 -3 5 -2 10 4 10 6 0 6 11 1 30 -5 17 -5 30 0 30 5 0
5 13 0 30 -5 17 -5 30 0 30 5 0 5 13 0 30 -5 17 -5 30 0 30 5 0 5 13 0 30 -5
17 -5 30 0 30 5 0 5 13 0 30 -5 17 -5 30 0 30 5 0 5 13 0 30 -5 17 -5 30 0 30
5 0 5 13 0 30 -5 17 -5 30 0 30 5 0 5 13 0 30 -5 17 -5 30 0 30 5 0 5 13 0 30
-5 17 -5 30 0 30 5 0 5 13 0 30 -5 17 -5 30 0 30 5 0 5 13 0 30 -5 17 -5 30 0
30 5 0 5 13 0 30 -5 17 -5 30 0 30 5 0 5 13 0 30 -5 17 -5 30 0 30 5 0 5 13 0
30 -5 17 -5 30 0 30 5 0 5 13 0 30 -5 17 -5 30 0 30 5 0 5 13 0 30 -5 17 -5
30 0 30 5 0 5 13 0 30 -5 17 -5 30 0 30 5 0 5 13 0 30 -5 17 -5 30 0 30 5 0 5
13 0 30 -5 17 -5 30 0 30 5 0 5 13 0 30 -5 17 -5 30 0 30 5 0 5 13 0 30 -5 17
-5 30 0 30 5 0 5 13 0 30 -5 17 -5 30 0 30 5 0 5 13 0 30 -5 17 -5 30 0 30 5
0 5 13 0 30 -5 17 -5 30 0 30 5 0 5 13 0 30 -5 17 -5 30 0 30 5 0 5 13 0 30
-5 17 -5 30 0 30 5 0 5 13 0 30 -5 17 -5 30 0 30 5 0 5 13 0 30 -5 17 -5 30 0
30 5 0 5 13 0 30 -5 17 -5 30 0 30 5 0 5 13 0 30 -5 17 -5 30 0 30 5 0 5 13 0
30 -5 17 -5 30 0 30 5 0 5 13 0 30 -5 17 -5 30 0 30 5 0 5 13 0 30 -5 17 -5
30 0 30 5 0 5 13 0 30 -5 17 -5 30 0 30 5 0 5 13 0 30 -5 17 -5 30 0 30 5 0 5
13 0 30 -5 17 -5 30 0 30 5 0 5 13 0 30 -5 17 -5 30 0 30 5 0 5 13 0 30 -5 17
-5 30 0 30 5 0 5 13 0 30 -5 17 -5 30 0 30 5 0 5 13 0 30 -5 17 -5 30 0 30 5
0 5 12 1 28 -7 29 -6 90 3 99 2 3 1 15 -4 27 -4 13 -5 29 0 36 4 7 4 24 0 39
-4 14 -4 35 0 46 4 11 4 29 0 41 -5 11 -5 27 0 34 4 7 4 24 0 39 -4 14 -4 35
0 46 4 11 4 29 0 41 -5 11 -5 26 0 33 4 7 4 28 0 46 -4 18 -4 38 0 45 4 7 4
27 0 46 -4 19 -5 34 -1 34 6 0 6 98 0 104 -2 2 -26 -12 -54 -31z"/>
<path d="M5710 2588 c-51 -32 -191 -118 -293 -180 -49 -29 -99 -60 -112 -68
-12 -8 -49 -30 -81 -49 -33 -19 -60 -38 -62 -43 -2 -4 -8 -8 -12 -8 -5 0 -44
-21 -87 -47 -112 -69 -116 -71 -133 -79 -8 -4 -17 -10 -20 -14 -3 -3 -43 -29
-90 -56 -47 -28 -179 -109 -295 -179 -115 -71 -246 -150 -290 -176 -44 -27
-85 -53 -92 -59 -7 -5 -15 -10 -18 -10 -3 0 -32 -16 -63 -37 -31 -20 -118 -73
-192 -118 -136 -82 -481 -292 -728 -443 -74 -45 -138 -82 -143 -82 -5 0 -9 -4
-9 -8 0 -5 -18 -17 -40 -28 -22 -10 -40 -22 -40 -26 0 -5 -5 -8 -11 -8 -6 0
-34 -15 -62 -34 -86 -55 -207 -126 -216 -126 -5 0 -11 -7 -15 -15 -3 -8 -10
-15 -16 -15 -6 0 -36 -16 -66 -35 -30 -19 -57 -35 -60 -35 -3 0 -20 -11 -38
-25 -18 -14 -36 -25 -39 -25 -9 0 -112 -64 -115 -72 -2 -5 -8 -8 -13 -8 -5 0
-39 -20 -76 -43 -38 -24 -73 -46 -78 -48 -6 -2 -57 -33 -113 -68 l-104 -64 39
-14 c40 -14 237 -73 263 -78 131 -29 170 -37 199 -41 18 -3 43 -8 55 -10 11
-3 46 -7 76 -9 30 -3 66 -8 80 -11 40 -10 468 -13 540 -4 36 4 90 11 121 14
31 4 67 9 80 11 13 3 41 7 63 11 22 3 43 7 46 9 3 2 21 6 40 9 19 3 46 8 60
11 14 3 34 8 45 10 11 3 52 14 90 26 39 11 77 22 85 24 8 2 16 4 18 5 1 2 5 3
10 5 4 1 20 7 35 13 16 7 34 12 41 12 7 0 16 3 20 7 3 4 13 8 22 9 8 1 35 12
60 23 24 12 47 21 50 21 9 0 298 143 304 150 3 3 32 21 65 39 33 19 62 37 65
41 3 4 25 19 50 33 25 14 54 35 65 45 11 10 27 23 36 28 54 31 207 163 319
274 122 121 180 187 279 320 39 52 75 100 80 106 4 5 14 21 21 35 7 13 16 26
19 29 3 3 12 16 20 30 8 14 34 58 58 98 23 39 39 72 35 72 -4 0 -2 4 4 8 13 9
83 153 128 266 59 147 124 361 152 501 26 130 36 225 26 225 -4 0 -23 -10 -42
-22z"/>
</g>
</svg>
